<?xml version="1.0" encoding="utf-8"?>
<!-- Generator: Adobe Illustrator 22.0.0, SVG Export Plug-In . SVG Version: 6.00 Build 0)  -->
<svg version="1.1" id="Layer_1" xmlns="http://www.w3.org/2000/svg" xmlns:xlink="http://www.w3.org/1999/xlink" x="0px" y="0px"
	 viewBox="0 0 1221.6 232.8" style="enable-background:new 0 0 1221.6 232.8;" xml:space="preserve">
<style type="text/css">
	.st0{fill:#F9F9F9;}
</style>
<g>
	<path class="st0" d="M671.3,208.3c-8.8,0-8.2-10.1-4.2-15.1c3.5-4.4,10.5-7.1,15.1-10.3c11.3-7.9,20.5-18.7,26.9-30.9
		c-3.4-2.1-11.5,5.8-15.7,5.2c-13.5-1.9,3.4-17.3,3.4-21.4c-4.7,2.7-9.6,6.3-14.6,8.3c-3.6,1.4-7.6,1.7-11.3,2.4
		c-3.5,0.6-8.3,2.5-11.6,0.4c-2.7-1.7-5.2-9.9,0.4-7.6c-0.9-7.3-10.7-0.3-13.5,1.6c-4.7,3.1-9.4,6.2-14.1,9.3
		c-1.7-5-11.9,6.7-15.4-0.9c-2-4.3,1.7-12.2,3.6-15.8c2.3-4.4,5.7-7.7,8.7-11.6c1.6-2.1,4.5-5.1,0.8-5c-2.4,0.1-10.6,8.9-12.6,10.6
		c-6.8,5.6-15.9,11.3-24.1,14.7c-4.4,1.8-9,2.4-13.1,5.1c-3.7,2.4-7.4,4.4-11.1,6.8c-3.2,2-8.3,4.4-11.2,0.4
		c-2.4-3.2-0.4-9,1.2-12.3c1.9-4,4.6-6.1,8.1-8.7c3.8-2.9,6.8-6.6,10.6-9.5c6.3-4.8,13.5-9.6,16-17.6c0.6-2,1.7-5.9,0.2-7.7
		c-1.3-1.6-3.1-0.5-4.6-1.2c-2.7-1.3-6-4.5-6.1-7.5c-0.2-5.4,7.1-6.9,10.4-9.7c1.3-1.1,2-2.8,3.2-3.7c2-1.5,4.9-1,5.9-3.9
		c-3.1-1-5.1,1.2-7.8,2.3c-2,0.8-4.2,0.6-6.2,1.3c-3.5,1.2-8.7,5.5-12.7,5.4c-2.5,0-4-2.1-2.2-4.3c1.2-1.5,5-1.8,6.8-2.2
		c5.9-1.3,10.7-3.2,16.3-5.3c4.2-1.6,7.7-3.7,11.3-6.5c4.1-3.2,6.3-4.7,2.8-9.5c-4-5.5-5.9-8.2-12.3-10.3c-6.4-2.1-12.2-3.7-19-4.1
		c-9.8-0.6-19.7-2.7-29.5-2.5c-5.7,0.1-10.5,0.2-16.3,1.4c-7.6,1.6-15.1,3.2-22.7,4.8c-5.4,1.1-10.6,3.7-16,4.3
		c-5,0.6-8,3.4-12.4,5.9c-4.4,2.5-10,4.4-13.1,8.6c-4.2,5.6-4.3,11-2.9,17.5c0.8,3.7,0.5,5.1,3.5,7.6c2.7,2.3,5.7,3.1,9,4.1
		c5,1.5,9,1,14.2,0.3c3.4-0.5,7.3-2.2,10.7-1.9c3,0.2,5,1.2,8.1,1.2c3.7,0,7.7-1.2,11.4-0.5c-0.3,5.3-6.2,4-9.7,4.3
		c-5.5,0.5-12,3.2-17.8,2.5c-0.8-0.1-2.4-1.5-2.8-1.5c-0.8,0-1.4,0.9-2.2,1c-3.5,0.4-7.1,0.8-10.8,0.5c-6.6-0.6-11.4-2.4-15.7-7.7
		c-3.6-4.3-7.5-12-5.8-17.3c1.3-3.9,3.9-7.7,6.3-11c2-2.8,4.3-4,6.8-6.4c4.2-4.2,11.7-8.7,17.4-9.7c7.3-1.3,14.4-4.6,21.8-6
		c13.7-2.6,27.5-6.5,41.5-6.5c7.4,0,14.8,1.3,22.2,1.8c4.3,0.3,9.2,0.1,13.4,1c4.8,1,10.5,2.6,15.1,4.4c3.5,1.3,6.9,3.1,10.2,4.9
		c3,1.6,7.6,6,10.2,6.1c2.3,0.1,5.1-4,7-0.1c1.2,2.4-2.6,5.3-4.1,6.7c-3,3-5.7,6-8,9.5c-2.2,3.5-2.6,6.5-6.2,8.9
		c-2.8,1.9-5.5,3.7-8.2,5.7c-1.6,1.1-6.4,2.6-7.2,4.4c-1.2,2.5,2.5,3.2,4.3,4.2c4.4,2.3,4.4,4,4.3,8.9c-0.2,7.9-3.6,16.2-9.2,21.6
		c-2.9,2.8-3.7,6-5.8,9.2c-1.7,2.7-5.8,5.5-5.9,8.9c5.9,0,9-5.8,13.7-7.6c-0.5,0.2,5.6-0.5,4.2,0.2c1.5-0.7,1.5-2.4,2.6-3.6
		c2.5-2.5,3.8-0.9,7-2c6.5-2.2,11.8-9,17-13c5-3.8,10.8-6.4,15.7-10.3c6-4.7,11.3-11.6,16.2-17.5c2.9-3.4,8.4-17.7,14.6-13.4
		c9.2,6.3-14.5,28.1-18.6,32.1c-5.6,5.6-9.8,10.2-13.7,17.1c-1.9,3.4-5,5.3-7.6,8c-2.8,3-4.9,7.2-6.4,11c-1.1,2.7-1.8,2.9,0.4,3.7
		c2,0.7,7-1.8,8.7-2.6c3.6-1.6,7.2-4.5,9.9-7.3c1.6-1.7,2.2-4.1,4.4-5c0.3-0.1,2.1,0.9,2.8,0.8c1.7-0.3,2.4-0.8,3.7-1.7
		c2.5-1.8,3.5-4.7,5-7.3c4.1-7.6,9.4-14.7,14.4-21.7c4.4-6.2,9.9-11.6,14.1-17.9c3.3-4.8,7.9-12.8,13.9-14.4
		c10.8-2.7,5.2,14.8,2.5,19.3c-0.7,1.2-4.5,6.8-5.9,6.1c-3.7-1.8,0.9-5.7,1.3-7.6c0.8-3.9-1.2-5.1-3.8-2.9c-3.3,2.6-5.8,8-8.2,11.4
		c-4.8,6.8-12.7,14-15.7,21.6c3.9-3.4,9.5-11.4,15.2-10.2c-5.6,9.2-15.7,14-21.9,22.5c-3,4-3.7,6.9-4.7,11.4
		c-0.2,0.9,0.1,2.1-0.5,2.9c-0.8,1-2.7,0.5-3.2,1.1c-1.3,1.7,0.6,1.2,1.8,1.3c3.7,0.3,6.8-2.6,10.9-1.7c4.1,0,14-3.7,16.6-7.4
		c1.2-1.7,0.1-2.9,2.1-3.8c1.1-0.5,3.1,0.9,4.5,0.5c4.6-1.4,7.1-8.1,12.2-8.8c3.8-0.5,5.6,3.5,4,7c-1.5,3.2-5.7,4.9-7.8,8.1
		c-1.9,2.9-6.5,7.6-6.4,11.2c0.1,3.6,4.4,1.6,6.9,0c6.6-4.4,12.8-10.1,18.9-15.2c2.4-2,4.8-4.7,8-4.6c0.3,0,1-1,1.3-0.8
		c0.9,0.3,1.3,2.7,2.2,2.9c1.1,0.3,5.8-2.5,7.2-2.9c2.9-0.8,5.7-0.9,8.6-1.5c3.7-0.7,6.4-1.7,10.3-1.4c4.9,0.4,6.5,1.2,7.3,6.3
		c0.6,4,0.6,5.8,5.1,4.5c6.4-1.9,11.3-5.7,18.1-5.8c2.3,0,5.9,1.5,6.7,3.6c1.5,4.2-4.5,7.5-5.2,11.4c-0.3,1.9,0.3,4.4,1.2,6.1
		c0.4,0.8,2.4,2.4,2.4,3.2c0.1,3.2-8.4,4.1-10.7,3c-2.7-1.2-2.7-5.7-2.7-8.3c0-4.1,4.5-11.3-2.1-10.8c-4.9,0.4-15.8,8.1-19,11.9
		c-2.4,2.8-2.7,7-6.2,8.8c-2.8,1.4-6.5,1.2-8.2-1.6c-5.1-8.5,9.5-16.3,11.2-23.6c1.7-7.3-2.1-4.5-6.6-3.3c-4,1-8.7,0.6-12.2,3.3
		c-3.2,2.5-3.6,6-7.1,7.3c-1.6,0.6-2.5-0.8-4.6,1c-1.6,1.4-2.9,3.7-4.3,5.4c-3.4,3.8-6.6,6.6-9,11.2c-2.7,5-5.4,9.5-8.8,14.1
		c-2.9,3.9-5.6,7.9-8.9,11.4c-2.4,2.6-6.3,4.6-8.3,7.3c-1.2,1.7-1.1,4-2.7,5.5c-1.5,1.3-3.9,1-5.6,2.1
		C678.6,200.7,676.8,208.3,671.3,208.3z"/>
	<path class="st0" d="M660.3,140.2c-2.4-11.1-17.6,2.2-22.5,5.4c-1.4,0.9-2.9,2.6-4.5,3c-2,0.5-1.2-0.8-2.2-0.6
		c-2.1,0.4-3.4,1.2-5.4,2c-4.1,1.7-8.2,2.3-8.8-3c-0.5-5,2.3-11,4.8-15.1c2.3-3.8,9.6-8.9,10.2-13.2c1-6.2-6.3,0.9-8.1,2.4
		c-4.6,3.9-9.1,7.9-14.4,10.9c-4.8,2.8-9.6,5.8-14.5,8.5c-5,2.7-10.7,3.2-15.5,6.3c-4.2,2.7-19,14.9-22.2,5.8
		c-3.6-10.2,9-17.6,14.7-23.2c7.1-7,16.9-11.5,21.1-20.9c1-2.2,2.6-6.1,1.8-8.5c-1-3-2.6-2-5-3c-2.7-1.2-6.4-4.2-6.4-7.4
		c0-5.4,8.3-7,11.5-10.1c1.2-1.2,1.4-2.1,2.8-3.1c1.8-1.4,4.8-1.2,5.3-4.3c-3.1-1.3-5.1,0.4-7.8,1.6c-2.5,1.1-4.6,0.9-7.1,1.8
		c-3.2,1-8.9,5.5-12.4,5.3c-1.5-0.1-3-0.3-2.5-2.4c0.5-2.2,5.5-2.6,7.1-3c5-1.1,8.7-2.7,13.3-4.4c5.1-2,20.2-6.8,19.8-14.3
		c-0.2-2.6-7.1-10.7-9.4-12.1c-4.3-2.7-12-4.5-17-5.3c-5.4-0.9-11.1-0.7-16.6-1.3c-5.8-0.6-12.1-2.3-17.9-2.2
		c-11.1,0.2-21.5,2.2-32.5,4.6c-5.4,1.2-11.2,1.9-16.4,3.6c-4.8,1.6-10.4,2.1-14.7,4.5c-9.2,5-20.3,9.4-23.7,20.2
		c-1.3,4.3-0.3,13,2.2,16.9c2.8,4.4,11.7,6.6,16.3,7.1c6.6,0.6,13.1-2.9,19.5-2.7c3,0.1,5.5,1.3,8.6,1.2c3.6-0.1,7.4-1.1,10.9-0.6
		c-1,4.1-6.9,3.6-10.1,3.8c-5.5,0.4-11.9,2.6-17.5,1.6c-2.2-0.4-1.4-0.7-3.3-0.8c-0.8,0-1.5,1-2.2,1.1c-3.2,0.6-7.6,0.1-10.7-0.2
		c-6.1-0.6-10.6-2.9-14.5-7.9c-3.2-4.1-6.6-10.9-5.4-15.9c0.7-2.9,2.7-5.6,4.3-8.1c2.3-3.6,3.8-4.6,6.6-7.1c4.5-4,9.3-8.2,15-10.7
		c2.4-1.1,4.8-0.9,7.3-1.6c3.7-1,7-2.8,10.8-3.7c14.4-3.6,30.4-7.8,45.3-8.2c8-0.3,15.7,1.1,23.7,1.6c3.5,0.2,7.1,0.5,10.6,0.8
		c4.6,0.4,7.5,1.6,11.9,2.6c6.7,1.5,12.4,3.6,18.4,6.9c2.7,1.4,5.3,4,7.9,5.2c3.1,1.4-0.1,1.2,3.8,0.6c1.4-0.2,3.6-2.2,5.1-0.6
		c2.5,2.7-7.2,10.3-8.8,12.3c-1.8,2.2-3.4,4.7-4.7,7.2c-2.2,4.3-2.7,4.5-7,7.3c-2.8,1.8-5.3,4-8.2,5.8c-2.4,1.5-5.8,2-4.6,5
		c1.2,3,5.6,2.1,7.5,4.3c1.9,2.1,1.5,7.8,0.8,10.5c-0.7,3-2.3,7.1-3.4,10c-1.6,4.3-4.1,5.6-7.1,8.8c-2.4,2.6-3.2,6.1-5.2,8.9
		c-2.1,3-4.8,5.1-5.2,8.8c6.1-0.5,9-4.9,14-7.2c2-0.9,3.8,0.5,5.4-0.5c1.1-0.6,1.4-2.9,2.3-3.6c1.7-1.4,1.8-0.8,3.9-1.2
		c10.5-2.3,18.9-13.2,28-18.8C648,101,658.4,90.7,665,80.1c1.7-2.7,5.4-12.3,10.5-8.5c4,3-2.1,12.4-4.1,15.3
		c-6.2,8.5-14.8,14.7-21.8,22.5c-3.9,4.3-5.5,10.1-9.4,14.2c-4.5,4.7-10.6,9.7-11.9,16.7c-0.6,3.4-0.7,3.2,2.6,3.1
		c2.8-0.1,5.8-1.4,8.3-2.6c2.5-1.2,4.1-2.7,6.2-4.5c1-0.9,2.5-1.8,3.4-2.8c0.9-0.9,2.1-3.7,3-4.3c1.5-1.1,2.8,0.4,4.7,0.1
		c2.1-0.3,4.1-2.4,5.4-3.9c4.1-5.1,6.7-11.7,10.5-17.2c4.6-6.6,9.1-13.5,14.4-19.6c4.4-5,7.7-11.1,12.3-15.8
		c3.8-3.9,13.4-11.5,13.6-0.9c0.1,6.9-3.8,14.6-9.1,18.8c-2.6-2.7,2-5.6,1.7-8.6c-0.3-4.1-2.6-3.8-5.1-1.6
		c-5.2,4.8-8.9,12.6-13.2,18.3c-2.4,3.3-4.9,6.5-7.3,9.8c-1.1,1.5-5.5,6.1-2,5.2c5.2-1.4,7.4-10.7,13.5-9.8
		c-5.2,8.6-14.6,13-20.7,20.7c-1.9,2.4-4.2,5.5-5.1,8.5c-0.6,1.8,0.4,4.8-0.6,6.3c-0.8,1.3-3.5,0.8-3.9,1.8
		c-1.3,3.1,3.3,1.7,4.6,1.4c8-2.1,20.4-1.1,26.1-8.7c2.6-3.5-0.5-2.2,3.6-3c2.4-0.5,3.5-0.3,5.7-2.1c2.4-1.9,8.4-9.3,11.9-6.2
		c3.9,3.4-1.1,7.3-3.2,9.1c-4,3.3-8.2,9.7-9.9,14.5c-2.4,6.6,4.9,3.8,8.1,1.4c4.2-3.1,9.3-6.4,13.2-9.9c3.5-3.1,6.4-6.9,10.6-8.8
		c0,0,2.6-0.8,2.5-0.8c0.4,0.1,1.3,0.9,1.7,1c0.4,0.5,0.8,1,1.2,1.5c0.7-0.3,1.4-0.7,2-1c1.7-0.3,3.5-1.5,5.2-2
		c2.9-0.9,5.8-1,8.7-1.6c2.2-0.4,4.3-1.7,6.6-1.9c4.1-0.3,8.8,0.1,10.2,4.5c1.4,4.4-0.2,8.7,6.1,6.9c2.4-0.7,5-2.7,7.5-3.6
		c2.8-1.1,5.4-1.2,8.3-1.5c4.1-0.4,9.8,0.3,7.7,5.8c-2.2,5.6-6.8,7.8-3.4,14.4c0.8,1.5,2.7,2.5,2.1,4.3c-0.4,1.2-5.8,0.9-6.6,1
		c-6.7,0.3-6.2-6.3-5.1-11.7c0.9-4.7,2.2-8.9-4.8-7.1c-4.6,1.1-11.8,6.9-15.5,10c-3.7,3.1-4.3,8.9-8.6,10.8
		c-4.8,2.1-8.4-1.1-7.7-6.2c0.5-3.4,19.8-24.1,9.4-24.1c-2.2,0-6,1.9-8.3,2.3c-2.3,0.4-4.6,0.5-6.8,1.4c-3.6,1.6-5.1,7.6-8,8.5
		c-1.7,0.5-2.7-0.9-4.7,0c-2.1,1-3.5,4.1-5,5.8c-4.1,4.8-7.4,7.8-10.5,13.4c-6.3,11.7-14.4,20.9-23.8,29.8c-1.9,1.8-1.9,4.7-3.5,6.3
		c-1.7,1.7-4.1,1.4-6.1,2.6c-4.4,2.8-6.7,11.8-13.2,9.5c-6.7-2.3-4.8-10.3-1.1-14.4c3.7-4.1,10.5-6.8,15.1-10.1
		c11.3-8.1,20.2-18.9,26.7-31.2c-5.9-2-15.4,9.9-20.1,2.5c-4.2-6.5,7-13.2,7.6-19.4c-4.4,2.5-8.8,5.3-13.3,7.6
		c-4.7,2.3-9.7,2.9-14.8,3.8c-3.9,0.7-8.6,2.4-11.4-1.5C655.6,141.5,656.2,138.3,660.3,140.2z"/>
	<path class="st0" d="M135.5,169.9c-8.5,0-8.3-11.6-6-16.9c3.2-7.4,7.4-13.3,8.4-21.4c0.5-4.4,2.3-12.7,1-16.7
		c-1.2-3.7-1.3-3.7-4.6-2c-2.9,1.4-5.9,4.6-8.3,6.6c-5.5,4.6-10.2,9.1-14.9,14.4c-5.4,6.2-14.9,10.2-22,14.4
		c-12.7,7.5-24.9,14.4-39.1,18.5c-6.7,2-10.7,3.8-16.4-1.4c-5.9-5.4-5.3-11.7-0.6-17.8c3.1-4.1,11.1-8.6,12.2-0.7
		c0.6,4.3-1.9,5.4-3.7,8.6c-2.3,4,1.2,3.5,5.1,3.4c7.1-0.1,13.6-3.8,20.1-6.5c7.3-3.1,14.4-6.5,21.3-10.5
		c5.7-3.3,11.2-7.4,16.4-11.5c1.6-1.3,3.1-2.5,4.9-3.4c0.3-0.1,1.7-0.1,1.9-0.2c2.7-1.9,4.6-4.9,7.5-7.2c3.7-2.8,7.6-5.5,11.2-8.5
		c4.3-3.6,4.6-4.7,3.6-10.1c-0.8-4.6-1.6-7.9-3.3-12.3c-1.4-3.7-1.9-7.9,1.2-11c8.4-8.4,9,11.7,9.8,15.6c2.1,9.9,5.1,0.1,10.8-0.8
		c1.3,4.4-4.7,7.5-6.6,10.9c-2.8,5-2.7,10.9-2.6,16.4c0.1,7.5,4.1,5.7,7.5,0.4c3.8-5.8,7.7-11.6,11.5-17.3
		c6.2-9.4,11.6-20.1,18.7-28.8c3.5-4.3,6.6-9,9-14c1.5-3.2,2.5-6.5,3.6-9.8c0.8-2.5,4.1-7.7,3.1-10.2c-1,1-5.5,2.4-7.1,3.6
		c-2.7,2-4.3,4.6-6.6,7c-5.2,5.5-8.1,12.7-11.6,19.4c-2,3.9-15.9,28.4-19.8,19.7c5.9-2.3,9.1-9.1,11.8-14.4
		c3.3-6.4,6.2-13.9,10.2-19.9c2.2-3.3,5.5-5.7,8-8.7c2.1-2.5,3.8-5.3,5.9-7.8c2.4-2.9,4.9-5.7,7-8.9c2.3-3.5,3.5-7.4,7.5-9.4
		c-3.4-1.1-29.2-0.7-28.7-3.5c0.7-3.8,21.3-2.2,24.7-2.4c10.1-0.5,20-1.3,30.1-1.6c11.5-0.3,22.9,0.5,34.3,0.3
		c10.9-0.2,21.1-0.8,31.8-0.2c5.6,0.3,11.3-0.3,16.9,0.7c5.9,1.1,12.1,3,17.8,4.9c9.5,3.1,20.5,9.1,22.7,19.7
		c2,10.1-1.5,18.9-11.3,23.4c-9.6,4.4-20.5-2.5-29.6-4.7c-5.2-1.3-10.7-2.4-16.1-2.3c-6.4,0.1-10.5,3.4-15.5,7
		c-3.3,2.3-4.9,4.4-6.9,7.9c-3.1,5.6-3.1,9.1-1.8,15c1.1,4.6-1.9,7.8-5.7,3.5c-2.6-3-3.4-10.7-1.8-14.2c3.7-8.4,11.7-17.1,19.9-21.1
		c6.7-3.2,16.2-2.3,23.3-2.1c4.8,0.1,9.1,2.3,13.6,3.2c3.5,0.7,7.7,2.9,11.2,2.9c4.4,0,9.6-4.1,11-8.2c1.8-5.2-1.4-9.1-5-12.4
		c-5-4.7-9.6-7.9-16.2-10.1c-5.6-1.8-11.2-2.6-16.7-4.3c-3.2-1-5.9-2.9-9.3-3.2c-2.6-0.3-5.1-0.3-7.7-0.7
		c-5.6-0.9-10.9,0.7-16.4,0.4c-9.3-0.5-18.7,0.3-28-0.4c-6.2-0.5-13.7-2-19.8-0.8c-2.7,0.5-5.2,1.5-8,1.8c-2.7,0.3-6.1-0.1-8.6,0.8
		c4.5,8.9,2.7,16.1,1.9,25.5c-0.6,7.9-3.5,12-7.4,18.7c-7.4,13.2-13.9,26-23.8,37.5c-4.1,4.8-7.3,10.9-10.8,16.4
		c-4,6.3-6.9,13-9.6,19.9c-2.9,7.3-9.4,12.9-12,20.2C142.9,162.5,141.9,169.9,135.5,169.9z"/>
	<path class="st0" d="M151.8,93.2c0.9,3.3-4.5,6.6-6.1,9c-2.8,4.4-3,8.7-3.2,13.7c-0.1,3.1-1.7,10.1,3.4,10c3.1,0,6-6.9,7.5-9.2
		c10.2-15.7,21.2-31.2,31.3-46.8c5.1-8,9.1-16.7,11.5-25.9c3-11.3-11,3.1-13.5,5.8c-5.8,6.2-9.2,14.3-13,21.9
		c-2.3,4.5-4.1,8.1-7.5,11.8c-1.8,2-7.3,11-10,6.5c7.8-3.4,11-13.9,14.6-20.9c3-5.8,5.7-12.3,10.1-17.1c5.1-5.5,9.7-11.1,14.3-16.9
		c2.1-2.6,3.8-5.3,5.5-8.1c1.8-3.1,4.1-4,6.3-6.5c-5.3-2-11-1.6-16.6-1.5c-2.4,0-4.8-0.1-7.2-0.3c-1.9-0.2-7.4,0.2-4.5-2
		c3.2-2.4,10.6-0.9,14.3-0.9c5.2,0,10.4-0.3,15.6-0.5c11.2-0.4,22.5-1.6,33.8-1.8c10.8-0.2,21.6,0.7,32.4,0.5
		c4.9-0.1,9-0.8,13.7-0.2c5.2,0.6,11.2,0.1,16.5,0.1c10,0,20.5,2.7,29.9,6.3c8.6,3.3,18,8.8,20,18.5c2,9.7-0.9,17.2-9.9,22.2
		c-9.2,5.1-19.5-1.1-28.4-3.7c-10.4-3-21.1-4.7-30.3,1.7c-7.1,5-15.1,12.3-13.7,22.1c0.4,2.7,4.1,9.5-1.2,8.6
		c-3.7-0.6-4.9-7.9-5-10.9c-0.1-8.6,10.7-18.5,17.1-22.9c8-5.4,20.3-5.6,29.6-4c3.7,0.6,7.3,2.2,10.9,2.9c5,0.9,9.5,4.1,14.6,1.9
		c10-4.3,9.8-13.8,2.7-20.4c-9.2-8.7-18.8-11.3-30.9-14C301,21,297,19,291.5,18.6c-5.6-0.5-10.2-1.5-15.9-0.9
		c-5,0.5-9.7-0.1-14.7-0.1c-5.6,0-11.1,0.7-16.8,0.3c-6.4-0.5-13.6-1.9-20-1.2c-3.4,0.4-6.5,1.8-9.9,2.1c-3,0.3-6.1,0.1-9,1.1
		c4.8,9.7,3.9,20.7,1.9,31.2c-0.9,4.8-4.6,8.8-7,13.1c-2.8,5-5.7,10-8.3,15.1c-9.1,17.7-24,31.3-32.2,49.8c-2,4.6-3.5,9.5-5.9,13.9
		c-2.5,4.6-6.1,8.5-8.6,13.1c-2,3.6-1.6,7.2-4.6,10.4c-2.8,3-6.8,4.3-9.8,0.8c-7.6-8.9,4.3-20.8,6.6-29.3c1.1-4,5.4-25.9-0.5-27.1
		c-2.8-0.5-9.8,6.9-11.6,8.4c-4.4,3.6-9.4,7.1-12.9,11.6c-6.5,8.3-16.8,13-25.8,18.3c-9.5,5.6-18.7,11-29.2,14.8
		c-4.6,1.7-10.3,4.1-15.1,4.7c-4.1,0.5-7.8-2.4-10.3-5.5c-4.8-5.9,0.2-20.2,8.9-20c3.9,0.1,4.4,3.9,3.6,7.2c-0.7,2.9-6.3,6.3-4,8.6
		c2.3,2.3,11.2,0.3,13.8-0.5c5.7-1.9,11.2-4.8,16.7-7.1c9.4-4.1,17.8-9,26.1-15c3.5-2.5,7.9-6.7,11.7-8.5c2-0.9,3.2-0.5,5-2.1
		c1.9-1.7,3.2-4,5.4-5.7c4.4-3.4,10.3-6.6,13.9-10.9c3.1-3.8,1.4-10.4,0.3-14.9c-1.3-4.8-5.2-8.5-2.9-13.7c2.3-5.3,6.8-5.1,8.3,0.2
		c1,3.5,0.3,15.5,3.3,17.5C145.6,100.6,148.3,94.1,151.8,93.2z"/>
	<path class="st0" d="M470.1,157c-3.6,0-6.3-2.1-5.9-5.8c0.4-3.9,4.9-5.5,5.7-8.9c2.5-10.6-15.5,0.4-17.7,1.4
		c-3.5,1.6-6.8,2.9-10.4,4c-2.3,0.8-5.1,4.1-7.2,4.1c-2.8,0-4.1-5-7.3-4.6c-1.3,0.2-2.4,2.5-3.4,3.3c-2.1,1.5-3.9,1.3-6.3,1.9
		c-4.8,1.2-9.3,5.6-13.6,1.9c-4.2-3.6-3.8-9-1.2-13.9c3-5.7,10-9.9,15.1-13.6c1.6-1.2,15.6-13.7,17.3-6.8c0.9,3.7-9.4,8.5-11.6,10.6
		c-2.6,2.4-4.3,4.7-6,7.8c-1.1,2-5.9,6.7-5.8,8.8c0.3,7.7,13.3-4.6,14.5-7c0.8-1.7,0.8-3.6,1.8-5.1c1.7-2.6,5.5-3.3,7.2-5.8
		c2.7-4.3-2.4-9.8,2.3-12.5c3.7-2.1,4.9,0.9,7.3,2.6c0.8,0.6,1.1,1.3,2.1,1.6c1.4,0.5,3.5-0.8,4.6-0.3c5.8,2.6-3,10.4-5.9,12.4
		c-2.1,1.5-6.4,3.7-6.8,6.7c-0.9,5.8,5.8,2.1,8.3,0.8c3.9-1.9,7.8-3.6,11.7-5.4c3.4-1.6,5.5-4.6,8.6-6.5c3.2-1.9,8.7-3.1,11.8-0.3
		c2.5,2.3,0.9,7.8,3.3,9.4c5,3.2,13.9-8.3,20.2-7.5c4.5,0.6,4.6,4.7,3.7,8.4c-0.4,1.7-5,7.2-3.5,9c3.2-0.6,4-3.7,7.9-2.9
		c-1.5,4.8-8.5,11.4-13.7,10.6c-10.3-1.6-1.6-10.6-3.6-15.5c-3.7,2.2-7.8,3.4-11.1,6.1C478.8,148.7,474.6,157,470.1,157z"/>
	<path class="st0" d="M493.6,139.1c-3.5,2-7.5,3.3-10.8,5.6c-3.6,2.5-5.5,6.1-8.4,9.2c-2.1,2.2-6.1,4.1-8.7,0.9
		c-2.4-2.9,0-6,1.8-8.4c2.3-3.1,5.1-5.9,0.8-8.6c-3.7-2.3-6.5,0.3-9.9,2.1c-6.6,3.6-14.8,5.4-20.9,9.2c-4.3,2.7-2.6,1.6-6.4-0.9
		c-1.5-1-3.2-1.6-4.7-1.1c-1.7,0.5-3,3.2-4.9,4c-1.9,0.8-3.8,0.2-5.7,0.7c-2.5,0.7-6.6,4.5-9.2,4c-2-0.4-4.9-4.2-5.4-5.9
		c-0.8-2.9,1.4-8.7,3-11c2.1-3,6.2-5.8,9-8.1c4.4-3.5,9.3-7.8,14.2-10.5c1.6-0.9,6.4-3.1,7,0.2c0.4,2.1-4.5,4.6-5.7,5.4
		c-2.8,1.8-5.5,3.8-7.9,6.3c-3,3.2-4.3,7.3-6.9,10.8c-1.5,2.1-5.5,6.5-0.1,7.3c2.7,0.4,6.9-3.4,8.6-5c2.8-2.7,3.5-5,5.1-8.2
		c1.7-3.6,5.7-4.4,7.9-7.5c2.5-3.5-2.4-15.8,6-12.7c2.1,0.8,2.5,3.5,4.6,4.4c2.5,1.1,6.8-2,6.8,2.3c0,1.9-4.9,6.9-6.4,8
		c-2.9,2.2-5.3,2.8-7.4,6.1c-2.5,4-0.9,6.5,3.9,5.2c4.3-1.1,8.2-4.4,12.3-6.2c3.7-1.6,6.1-2.8,9.2-5.4c3.2-2.6,8.3-5.8,12.7-3.5
		c4,2,1.9,5.9,3.7,8.9c1.8,3.1,6.4,1.2,9-0.3c3.6-2,5.7-4.7,10.3-5.3c4.5-0.6,6.1,1.1,5.6,5.7c-0.2,2.2-4.9,8.6-4,10.5
		c0.9,1.7,5.4-2.3,7.8-2.1c-1.7,4.5-9.2,11.5-14.4,9.1C488.5,151.2,495,144.1,493.6,139.1z"/>
	<path class="st0" d="M775.3,214.1c-11.9,0-10-21.2-2.3-25.5c1.6-0.9,3.9-0.2,5.7-1.1c2.7-1.3,4.6-4.2,6.9-6.2
		c4.1-3.6,8.6-6.2,13.3-8.8c2.6-1.5,4.9-3.2,7.8-4.1c2.9-1,5.1-1.4,7.9-3.2c3.2-2.2,6-4.8,9.2-7c2.3-1.5,6.2-2.9,6.4-6
		c0.2-2.4-2.6-4.7-5-4.5c-2.9,0.2-2.8,2.5-5.2,3.5c-2.4,1.1-3.4,0.1-6.3,2c-1.8,1.2-3.4,2.7-5.1,4.1c-0.6-2.6-5.1-2-7.3-3.6
		c1.8-2.3,3.5-2.3,6.3-3.1c3.2-0.9,5.5-2.5,8.2-4c1.8-1,4.6-2.7,6.6-2.9c1.8-0.2,3.1,1.1,4.7,0.9c3-0.3,5.2-6.8,6-9.1
		c1.5-4,0.9-5.9,4.7-6.3c1.9-0.2,4.9,0.7,5.8,2.4c3.6,6.5-5.2,12.7-3.1,19.6c4-3.8,9-8,14.5-9.4c2.6-0.6,9-0.3,6.3,4.1
		c-1.3,2.2-7.8,2.9-10,3.3c-3.6,0.7-1.4,0.1-4,2.3c-1.2,1.1-2.6,1.6-3.9,2.7c0.7,0.2,1.3,0.9,2,1.1c-1,0.8-2,1.5-3,2.3
		c-1-4.1-3,0-3.9,1.7c-1.4,3.1-3,5.2-4.8,7.8c-2.7,3.9-5.4,7.7-8.2,11.6c-1.1,1.5-2.1,3.2-3.3,4.6c-1.7,1.8-2,1.4-3.9,2.7
		c-7.1,4.6-13.3,11-20.6,15.5c-3,1.9-6.4,3.3-9.7,4.7c-2.4,1-4.6,1.7-6.6,3.5C779.3,211.6,778.7,214.1,775.3,214.1z M792.3,183.2
		c-3.3,2.6-6.7,4.9-9.8,7.8c-1.7,1.6-7,5.5-7.1,8.1c-0.4,10.2,14.9-3.2,16.8-4.4c5.8-3.6,11.5-7,16.7-11.9c2.6-2.5,5-4.8,7.3-7.5
		c2.2-2.7,7.9-7.9,8.4-11.4c-3.2,2.1-6.4,4-9.7,6c-2.7,1.6-5.6,4.8-8.3,5.9c-0.8,0.3-2.6-0.2-3.1,0.1c-1.1,0.7-1,1.8-2.1,2.8
		c-1.7,1.7-4.1,1.9-3.8,4.8C795.7,182.9,793.9,181.9,792.3,183.2z"/>
	<path class="st0" d="M840.2,152.2c3.8-3.6,7.9-7,12.8-9.1c2-0.8,11.2-1.9,7.4,2.7c-0.2,0.3-4.5,2-5,2.2c-1.9,0.7-3.2,0.2-4.9,0.5
		c-2.9,0.6-5.4,3.7-8.1,5.8c0.7,0.4,1.3,0.7,2,1.1c-3.7,2.8-0.8-1-4.1,0c-2.4,0.7-2.7,6-3.8,7.9c-1.8,2.9-4.1,6.1-6.3,8.8
		c-3.1,4-6.5,10-10.4,12.9c-3.7,2.6-7.7,5.5-11.7,8.1c-4.9,3.2-9,7.1-14.2,9.7c-4.1,2-9.4,3.3-12.7,6.4c-3.4,3.2-4.9,5.9-9.6,2.7
		c-4-2.7-4.7-6.3-3.9-10.9c0.8-4.6,3-10.5,7.2-12.1c2.5-0.9,4-0.7,6.3-2.5c1.7-1.4,3.2-3.2,4.8-4.7c4-3.5,8.3-6,12.8-8.6
		c1.9-1.1,3.9-2.8,5.9-3.7c2.2-1,4.7-0.9,7-1.9c4.9-2.1,8.6-6.6,13-9.3c3.3-2,9-5.3,4.7-9.6c-0.7-0.7-3-1.5-3.9-1.5
		c-3.2,0-2.7,2.2-4.9,3.2c-1.4,0.7-2.4,0-3.9,0.5c-3,1-5.5,3.5-7.8,5.5c-0.9-2.2-4.6-1.5-6.6-2.8c2.6-2.4,5.8-2.4,9.1-3.8
		c3.3-1.5,6-3.4,9.3-4.7c2.9-1.1,1.9-0.7,4.4-0.7c1.3,0,1.7,1,3.2,0.4c2.6-1,4.5-6.9,5.4-9.2c1.3-3.4,0.8-5.4,3.8-5.9
		c2.7-0.5,5,1,5.7,3.4c0.9,3-0.4,5.7-1.6,8.1C839.5,145.1,838.6,147.6,840.2,152.2z M825.1,162.8c-5.8,3.7-11.6,7.9-17.5,11.3
		c-2,1.2-3.9,1.2-5.6,2.5c-1.5,1.1-5,4.1-5,6.1c-5-1.1-7,1.4-11,4.5c-3.1,2.4-6.6,5.3-9,8.4c-2.1,2.6-3.6,6.4,0.8,7.8
		c3,1,8.8-3.4,11-5c1.7-1.2,2.5-2.7,4-3.9c1-0.7,3.9-1.5,5-2.2c3.8-2.4,7.3-5.4,10.6-8.4c3.3-3.1,6.3-6.1,9.1-9.6
		C819.7,171.5,825.4,166.6,825.1,162.8z"/>
	<path class="st0" d="M1041.1,151.2c-8.6,0-14.4-1.7-11.9-12.1c1.6-6.4,7.3-10,12.6-12.9c8-4.3,32.1-24.3,39.3-13
		c6.5-5.1,10.4-14.1,12.9-21.7c1.2-3.6,1.6-8,5.7-9.7c3.9-1.5,5.6,1,6.1,4.9c1,7.2-5.7,17.2-10.2,22.4c-5.6,6.5-13.2,11-15.4,19.6
		c-0.4,1.5-4.2,10.1-3.1,11c1.5,1.4,4.7-1.5,6.1-2.4c2-1.4,5.7-5.2,8.4-4.8c4.9,0.8,1.9,4.7-0.2,6.4c-3.4,2.6-7.7,5.8-11.7,7.5
		c-4.5,1.8-4.8,1-8.4-0.2c-2.9-1-3.7,0-4.5-3.5c-0.3-1.6,3-11,1.8-11.4c-0.5,1.2-1.4,5.5-2.4,6.1c-0.4,0.2-2.6-0.3-3.3-0.1
		c-1.2,0.4-2.1,1.6-3,2.3c-3.2,2.4-6.2,5.7-9.7,7.4c-0.5-0.1-1-0.2-1.5-0.4c-0.9,0.2-1.6,0.7-2.2,1.4
		C1044.5,149.3,1043.7,151.2,1041.1,151.2z M1068.8,118.8c-6.9,0-12.8,9.3-18.5,12.3c-4.2,2.2-6.9,3.1-9.4,7.5
		c-1.1,1.9-3.7,5.8-0.9,7.5c2.2,1.3,8.7-3.2,10.3-4c2.8-1.4,5.2-2.8,7.5-5.1c3.2-3,9.2-6.7,10.7-10.7c0.1-0.2,0.1-3,0.2-3.5
		C1068.8,122,1071.3,118.8,1068.8,118.8z"/>
	<path class="st0" d="M1068.4,130.8c-0.5,1.2-0.8,3-1.6,4c-0.3,0.7-0.6,1.4-0.8,2.1c-0.7-0.1-1.3-0.2-2-0.2c-2.2,1.2-4,2.4-6.1,4
		c-1.8,1.4-4,3.9-6,4.9c-1.8,0.9-3.1,0.4-4.8,1.2c-1.8,0.8-2.6,3.1-4.8,3.6c-1.4,0.4-4.6,0.2-6.1,0.1c-6.5-0.5-7.9-3.8-6.8-10.1
		c1.1-5.9,6.1-11,11.5-13.5c2.1-1,3.4-1,5.4-2.5c1.9-1.4,3.8-3,5.9-4.2c5-3.2,10.9-6.1,16.5-8c5.3-1.8,9-3,12.2,1.9
		c6.5-5.5,10.4-13.2,13.2-21.1c1.2-3.3,1.4-7.2,4.3-9.5c3.2-2.6,5.5-1.7,6.6,2.1c2,6.5-4.1,15.9-7.9,20.9
		c-4.6,6.1-12.3,10.5-15.9,17.4c-1.9,3.6-2.6,8.1-3.8,12c-1,3.1-2.1,5.8,2.3,4.6c3.6-1,7.5-7.7,11.5-7c5.7,0.9,0,5.1-2.1,6.5
		c-6.2,4.3-11.7,9-18.8,5.6c-3.1-1.5-3.7-1.7-2.8-6.4C1068.1,137.1,1072,131.6,1068.4,130.8z M1069.3,126.1
		c-2.6-2.2,3.2-5.5,0.6-7.6c-1.7-1.3-6.6,1.7-8.1,2.7c-3.8,2.4-6.5,6.4-10.4,8.6c-4.2,2.5-7.4,2.7-10.3,7.1
		c-1.5,2.3-4.8,7.3-1.5,9.3c2.3,1.4,8.7-2.7,10.9-3.8c4.1-1.9,6.6-4.5,10-7.5C1063.7,132.2,1067.3,129.9,1069.3,126.1z"/>
	<path class="st0" d="M892.6,149.9c1.3-0.8,2.5-1.6,3.8-2.3c-3.2-0.5-7-2.6-10-2c-4,0.7-7.2,3.9-11,4.2c-0.1-1.2-0.6-1.4-1.3-0.8
		c-1,0.5-2,0.9-3.1,1.2c-2.3,0.2-4-0.2-5.6-2.1c-3.2-3.8-0.6-8.5,2.1-11.8c2.6-3.2,6.3-5.7,9.3-8.5c3.3-3.1,7.2-6.2,11.4-8
		c3.3-1.4,6.3-1.5,9.6-0.1c2.4,1,2.2,0.2,2.8,3c0.3,1.4-0.6,6.3-1.6,7.6c2.7-1.8,10.3-6.6,10.4-0.3c0,2.7-3.8,8.1-5.2,10.6
		c2,0,3.9,0.5,5.8,1c-1.5,4-4.4,5.1-8.2,6.9C899.9,149.4,893.2,153.6,892.6,149.9z M881.8,142.4c6.5-3,10.1-7.5,15.8-11.3
		c-3.8,1.2-4.2-2.2-6.7-2.8c-1.4-0.3-3.3,1.2-4.6,2.4c-1.8,1.7-4.9,4.7-5.7,6.9C879.8,139.5,880.7,140.3,881.8,142.4z"/>
	<path class="st0" d="M879,138.5c1.5,2.8,1.3,4.3,4.1,4c1.4-0.1,4.2-2.1,5.4-2.8c4.2-2.6,7.1-6.6,11.2-9.3c2.4-1.6,8.1-5.5,9.1-0.8
		c0.4,2.2-4.6,9.5-5.7,11.5c2.2,0,3.9,0.3,6,0.8c-1.6,3.3-3.7,4.1-7.2,5.8c-1.5,0.7-7.8,4.2-8.6,2.4c1.5-1,3.1-1.9,4.6-2.9
		c-4.4-0.7-8.6-3-12.7-1.8c-2.7,0.8-8.7,6.6-10.1,2.4c-12.9,5.1-12.3-7.5-4.7-13.9c6.1-5.1,13.9-14.7,22.5-14.8
		c5-0.1,7.3,0.9,6.7,5.7c-0.6,4-2,7.9-6.8,5.1c-3.5-2.1-2.7-3.5-7.1,0.5C883.8,132.3,879.8,136.4,879,138.5z"/>
	<path class="st0" d="M1133.6,161.4c-5.3,0,5.4-11.3,6-13.9c2-8.8-9.7-6.2-14.2-3.8c-6.8,3.8-12,8.2-19.9,9.6
		c-2.1,0.4-5,1.4-6.6,0.5c-0.7-0.4-0.4-1.6-1.1-2.2c-0.8-0.8-2,0-2.7-1.2c-1.2-2,1.8-6.9,2.2-8.8c0.9-4.2,1.1-7.9,3.1-11.7
		c2.5-4.6,8.7-9.8,14.4-7.9c8.6,2.8,1.5,12.2-2.1,15.8c-1.8,1.8-2.1,3.4-3.2,5.3c-1.4,2.2-3,3.2-5.3,4.6c0.9,1.1,2.2,2,3.6,2
		c4.2,0,6.8-3.7,9.9-5.6c3.3-2,5.7-2.8,8.7-5.6c4.8-4.5,10.5-5.2,16.8-5.6c2.1-0.1,5.4,0.1,6.7,2c1.2,1.8,0.2,5.2,0.2,7.2
		c0,1.8,1.4,4.7,1,6.3c-0.7,3.1-5.4,3.9-7.8,5.8C1140.9,156,1137.1,161.4,1133.6,161.4z M1108.3,130.8c-3.4,0.1-3.6,3.7-3.3,6.5
		C1107.2,136.4,1111.5,133.5,1108.3,130.8z"/>
	<path class="st0" d="M1103.3,147.4c2.9,3.7,6.3,2.7,10,0.7c2.1-1.1,3.2-2.9,5.1-4.1c1.9-1.2,4-1.3,5.9-2.8
		c4.5-3.5,6.3-6.6,12.5-7.1c2.8-0.3,8.4-1.8,11.1,0c2.2,1.4,1.8,2.8,1.9,5.4c-0.3,1.6-0.3,3.3-0.2,5c0.3,1.3,0.6,2.6,1,3.8
		c-0.7,2.3-2.3,1.9-4.3,2.9c-2.8,1.4-4.8,4-7.1,6c-0.9,0.8-5.2,5.3-6.8,3.3c-1.4-1.7,2.7-4.5,3.6-5.6c2.3-2.9,7.1-9.7,2.9-13
		c-8.4-6.5-22.1,8.1-29.6,10.3c-1.9,0.5-5.5,1.7-7.5,1.4c-0.6,0.5-1.4,0.7-2.1,0.5c-0.6-0.5-0.9-1.2-0.8-2.1
		c-5.3-3-2.1-4.9-0.9-10.5c1.1-5.2,1.4-10.9,5.5-15c2.7-2.7,9.2-5.6,12.8-3c5.5,3.9-0.5,10.6-3.7,13.9c-2.1,2.2-2.1,3.5-3.5,5.8
		C1107.7,145.1,1105.3,146.2,1103.3,147.4z M1104.6,138.2c1.8-1,8.6-4.9,4.1-7.6C1104.4,127.9,1104.4,136.3,1104.6,138.2z"/>
	<path class="st0" d="M229.4,157.7c-10.3,0-9.1-27.3,4.5-23.3c9.1,2.7-2.2,19.8,10.6,11.6c9.2-5.9,17.5-14,25.3-21.7
		c3.8-3.8,6.3-8.5,9.8-12.6c1.5-1.8,4.2-3,5.3-4.9c1.2-2.1,1.1-6.2,1.5-8.6c2.3-11.8,14.7-5.2,10.6,3.3c-1.8,3.8-8.1,5.5-10.9,9.1
		c-3.6,4.6-6.4,9.8-9.8,14.4c-3.1,4.2-8.6,5.7-10.6,10.8c-1.1,2.9,0.4,2.4-2.4,4.2c-0.8,0.5-2.1,0.2-3.1,1c-1.8,1.4-2.9,4.4-4.6,6.1
		c-2.1,2.1-4.5,3.7-7,5.1c-2.3,1.3-5.2,1.2-6.1,3.9c-0.1-0.4-0.1-0.9-0.2-1.3C238.3,155.9,233.3,157.7,229.4,157.7z"/>
	<path class="st0" d="M242.6,154.2c-3.6,0.9-11.3,3.9-14.8,2.3c-5-2.3-5.4-11.5-3.7-15.7c1.6-3.9,7-8.6,11.4-5.1
		c3.7,3-0.9,10.4,2.1,13.2c4.5,4.2,23.5-15.6,26.5-18.4c5-4.7,9.4-9.2,13.4-14.7c3-4.2,7.4-6.8,8.5-11.5c0.8-3.6,0.3-9.7,4-11.8
		c5-2.8,8.6,4.9,6.6,8.8c-1.8,3.6-7.9,5.4-10.6,8.8c-3,3.8-5.8,8.2-8.6,12.2c-2.9,4.1-5.9,5.8-9.4,9.3c-2.1,2.1-1.7,3.9-3,6.1
		c-1.4,2.4-1,0.7-3.4,2c-4,2.2-5.9,7.3-9.8,10.1C249.9,150.9,242.6,154.3,242.6,154.2z"/>
	<path class="st0" d="M950.8,151.1c-1.3,0-1.2-1.3-2.1-1.8c-1.1-0.6-2.4-0.6-3.7-0.9c-4.2-1.1-4.1-1.2-8.3,0.5c-4,1.6-5.4,1.6-9,0.2
		c-3.7-1.5-8-3.5-8.1-7.5c-0.2-5.8,1.5-12.4,6.2-16.4c4.3-3.7,9-5.7,14.8-5c2.9,0.3,5.1,1.5,7.1,3.6c1,1.2,2,4,3.2,4.2
		c1.3,0.3,3.1-1.9,5-1.4c3.9,1.1,2.2,4.1,3.8,6.5c1.9,2.9,5.6,0.1,8.8,1.8c-0.9,3.3-5.6,6.2-8.2,7.8c-1.6,0.9-4.2,1.2-5.5,2.4
		C953.5,146.3,953.6,151.1,950.8,151.1z M928.8,134.4c0.7,3.1,0.7,9,5.5,9c0.9,0,7.1-2.5,7.7-3.2c1.3-1.4,3.2-9,2.9-10.6
		C942.4,117.3,928.7,126.8,928.8,134.4z"/>
	<path class="st0" d="M920.5,141.7c0.6-7.1,0.7-12.2,6.6-17c5.1-4.1,12.9-6.2,18.6-2.1c1.4,1,3.2,5,4.1,5.5c2,0.8,3.5-1.6,5.9-1
		c4.1,1,1.8,5.1,3.6,7.2c1.8,2,6,0,8.4,0.9c-2.5,5.8-10.2,6.2-13.7,10.2c-0.8,1-0.8,3.7-2.1,4.4c-1.9,1-0.8,0-2.5-0.2
		c-1.8-0.2-4.8-2.4-7.1-2.7c-2.9-0.3-4.8,1.1-7.5,2.1c-3,1.1-3.5,0.4-6-0.2C927.8,148.4,917.4,143.1,920.5,141.7z M928.2,134.5
		c0.7,2.6,0.3,5.3,2.4,7.4c2.7,2.8,3.6,1.5,6.4,0.6c2.1-0.7,4-0.2,5.6-2.1c1-1.3,2.4-7.1,2.6-8.7c0.5-4.1-4.2-10.7-8.9-8.6
		C933.1,124.4,928.1,130.9,928.2,134.5z"/>
	<path class="st0" d="M987.3,151.5c-1.8-3.6-3.3-6.2-2.8-10.3c0.3-2.6,1.5-4.4,0.5-6.8c-2.4-6.1-13.1-4.3-3.3-11.1
		c1.5-1,3.8-3,5.7-3.1c1.3,0,2.3,1.2,3.6,1.3c2.9,0.3,5.5-1.2,8.1-2.3c3.7-1.6,6.8-3.4,10.9-2.3c4.1,1.1,7.6,3.3,11.9,4.3
		c1.3,0.3,5,0.4,5.6,1.5c2.6,4.8-4.9,5.5-7.3,5.5c-3.1-0.1-4-1.6-6.3-2.1c-2.3-0.5-7.3,2.3-9.1,3.6c-5,3.7-2.7,10.4-7.3,14.6
		C996,145.5,988.1,152.3,987.3,151.5z"/>
	<path class="st0" d="M1027,122.7c1.2,5.6-6.8,5.8-10.3,4.6c-1.8-0.6-2.1-1.9-4.2-2c-1.9-0.1-6.6,2.6-8.1,3.7
		c-4.5,3.3-2.8,8-5.4,12.3c-2.2,3.7-7.9,7-11.2,9.8c-1.8-3.6-3.3-6-2.7-10.1c0.4-3.2,1.9-5.9-0.4-8.8c-1.6-1.9-6.4-2.1-6.9-4.4
		c-0.4-1.9,6.4-6.5,8.2-6.9c2.8-0.6,5,1.3,8,0.7c4.4-0.9,8.5-5,13-5.1c3.2-0.1,6,2.3,8.9,3.4C1019.5,121.4,1023.4,121.9,1027,122.7z
		"/>
	<path class="st0" d="M350.6,154.4c-2.3,0-6.7,0.2-7.9-2.3c-1.8-3.8,4-9.5,6.1-12c3.6-4.4,7.2-8.8,11-13.1c2.3-2.6,9.7-7.3,10-10.6
		c-3.4,0.8-7.1,7.2-10.3,6.8c-6.3-0.8,2.7-9.7,4.3-11.3c4-4,19.9-7.4,18.1,2.3c-1.5,8.2-10.2,12.8-16,17.9
		c-4.2,3.7-10,8.9-10.6,14.7C354.9,149.7,355.7,154.4,350.6,154.4z"/>
	<path class="st0" d="M370.4,115.6c-2.9,0.5-12.9,10.8-12.6,4.3c0.1-2.1,5.5-7,7.1-8.5c2.8-2.6,4.8-2.8,8.5-2.8
		c6.3,0.1,9.6,0.1,6.9,7.5c-2.5,6.8-8.8,10.2-14.1,14.8c-3,2.6-5.8,5.3-8.1,8.5c-1.1,1.5-2.9,3.6-3.3,5.4c-0.4,1.6,0.6,3.3,0.3,4.9
		c-0.9,3.7-8.6,6-11.3,2.8c-3.6-4.2,8.2-15.4,10.7-18.3c2.8-3.4,5.5-7,8.7-10.1C365.6,121.6,369.7,119.4,370.4,115.6z"/>
	<path class="st0" d="M1156.1,173.2c0.9-0.9,1.8-1.9,2.7-2.8c-5.4-1.5-3.3-7-1.6-11.1c1.3-3.2,6.5-6.4,4.8-9.7
		c-2.6-5-13.9,1.6-3.2-6c4-2.9,7-5.5,12.4-4.5c5.9,1.1,3.8,5.6,3,10.3c-0.3,1.8-0.7,3.5-1.4,5.1c-1.1,2.4-3.8,3.5-4.9,5.2
		c-2.1,3.3-2.1,6.1-5.1,9.1c4.6-1.6,10.1-4.9,13.7-8.1c1.2-1.1,1.7-2.9,3.5-3.1c2.9-0.4,3.1,1.9,2,4.2
		C1180,165.8,1157.8,177.5,1156.1,173.2z"/>
	<path class="st0" d="M1156.8,173.2c1-1.1,2-2.1,3-3.2c-8.3-2.1-1.3-11.6,1.6-16c1.2-1.8,2.7-4.5,0-6.2c-1.3-0.8-6.7,0.9-7.1-1.1
		c4.5-2.5,8.2-6.9,13.5-7.3c6.5-0.5,7.1,1.4,6.1,7.2c-1.6,8.8-7.3,12.9-10.5,20.6c-1.3,3-1.2,2.3,2.1,1c2.1-0.8,4.6-2.8,6.5-4
		c1.5-0.9,9.5-9.3,10.2-4.7C1183.1,165.1,1158.6,175.6,1156.8,173.2z"/>
	<path class="st0" d="M357.7,147.5c1.9-1.6,5.1-3.5,6.5-5.5c2.2-3.1,0.6-3.8,4.7-5.1c4.8-1.5,10.5-4.3,14.2-8
		c4.3-4.3,6.4-13.4,12-16.2c2.3-1.1,5.3-1,6.1,2c0.7,2.9-2.5,6.6-4,8.9c-2.1,3.3-2.7,3.4-0.7,6.6c1.6,2.5,5.4,4.1,3.1,7.4
		c-3.7,5.2-8.1-6.2-12-6.4C384.2,130.9,359.7,154.1,357.7,147.5z"/>
	<path class="st0" d="M358.4,147.6c2.1-1.8,5.4-3.6,6.8-5.9c1.1-1.9,0-2.7,2.1-4c2.1-1.4,6.1-1.5,8.6-3c2.4-1.4,5-2.9,7-4.7
		c4.5-4.1,6.4-10.2,10.5-14.7c1.6-1.8,4.6-4.4,6.8-1.6c1.9,2.3-0.7,5.5-2,7.5c-1.1,1.8-4,4.5-3.7,6.7c0.4,2.9,4.4,4,5.1,6.6
		c0.5,1.7-0.2,4-2.3,3.9c-1.8-0.1-4.5-4.1-5.9-5.2c-3.3-2.8-4.4-3.1-7.7-0.4c-3,2.4-5.8,4.8-8.9,7C372.7,141,360,150.3,358.4,147.6z
		"/>
	<path class="st0" d="M67.7,33.1c-1,0-2.5-0.7-3.5-1.1c4-8.9,22.8-6.6,30.9-7.5c9.2-1,18.4-3,27.6-3.4c4.4-0.2,8.7-0.3,13.1-1
		c1.8-0.3,10-2.6,11.8-1c3.8,3.3-13.7,4.2-14.8,4.3c-7.5,1.3-15.7,3.6-23.3,4.1C95.5,28.2,81.7,32.2,67.7,33.1z"/>
	<path class="st0" d="M147.7,20.4c-3.5,1.7-5.7,1.3-9.6,1.6c-4.2,0.3-8.2,1.5-12.3,2.1c-7.3,1.1-14.3,2.2-21.5,2.5
		c-6.9,0.3-14.8,2.3-21.6,3.8c-5.3,1.2-12.6,2.9-17.7,1.2c2.8-4.9,10.6-5.6,16-5.8c8.2-0.4,16.3-0.9,24.5-1.9
		c6.7-0.9,13.2-2.2,20-2.3C128.8,21.4,147,17.9,147.7,20.4z"/>
	<path class="st0" d="M292.9,163.2c-11.3,0-5.8-18.5,3.5-18.4C308.5,145,302.2,163.2,292.9,163.2z"/>
	<path class="st0" d="M302.8,150.8c-0.4,4-2.1,7.9-5.6,10.2c-3.3,2.1-8.9,1.7-10.2-2.8c-1.1-3.7,2.3-9.8,5.2-11.6
		C297.3,143.6,300.6,146.4,302.8,150.8z"/>
	<path class="st0" d="M761.7,113.4c-8.2,0-14.9-15.3-5.2-17.5C765.1,94,769.6,113.4,761.7,113.4z"/>
	<path class="st0" d="M752.3,101.8c4-10.1,11.8-3.7,13.1,4.5c0.7,4.6-2.2,7.3-6.4,5.6C753.9,109.8,753.2,106.5,752.3,101.8z"/>
	<path class="st0" d="M533.8,91.2c-1.7,0-2.6-0.9-2.3-2.6c0.4-2.2,5.3-2.4,6.7-2.6c5.3-0.9,9.7-3.1,14.8-4c5.2-0.9,9.5-2.6,14.5-3.9
		c2.3-0.6,6.5-1.2,5,1.8c-2.3,4.7-13.1,4.8-17.2,5.9c-2,0.5-3.5,1.7-5.5,2.2c-1.1,0.2-2.2,0.2-3.4,0.1c-1.2-0.6-2.2-0.3-2.7,1
		C540.5,89.8,537,91.2,533.8,91.2z"/>
	<path class="st0" d="M544.5,87.3c-1.2,2.8-16.5,5.1-10.9,0.3c2.9-2.4,9.8-1.4,13.5-2.9c3.9-1.7,6.9-2,11.2-2.8
		c3.8-0.7,7.6-3.7,11.5-3.5c6.3,0.2-2.6,4.8-4.9,5.4c-2.4,0.7-5.3,0.6-7.9,1.4C553,86.5,548.8,88.1,544.5,87.3z"/>
	<path class="st0" d="M189.1,156.9c-7.7,0-10.2-10.5-2.7-13.4C194.8,140.2,197.4,156.9,189.1,156.9z"/>
	<path class="st0" d="M188.2,156.3c-7.5,0.2-7.2-11.1-0.9-12.3C195.5,142.4,195.5,157.8,188.2,156.3z"/>
	<path class="st0" d="M278.3,93.1c-3-0.7-10-4.1-3.7-5.7c2-0.5,4.2,0.5,6.4-0.1c2.8-0.8,4.6-3.6,7.2-4.5c5-1.5,5.5,3.9,2.2,6.7
		C287.8,91.7,281.7,92.9,278.3,93.1z"/>
	<path class="st0" d="M278.4,92.5c-1.5-0.4-5.7-0.5-5.6-2.9c0.1-2.5,1.7-1.2,3.5-1.5c2.9-0.4,4.7,0,7.5-1.5c1.6-0.9,3-2.9,4.7-3.3
		c3.9-0.9,4.7,2.8,2,5.4C287.9,91.2,281.8,92,278.4,92.5z"/>
	<path class="st0" d="M722.7,109.1c-9.2,0,1.9-13.4,7.2-10.5c3.3,1.8,2.6,6.8-0.1,8.8C728.9,108,723.6,109.1,722.7,109.1z"/>
	<path class="st0" d="M726.9,107.2c-1.7,0.4-6.4,2.6-7.5,0c-0.8-1.8,4.1-6.2,5.2-6.9C732.1,95.1,733.9,107.3,726.9,107.2z"/>
	<path class="st0" d="M155.8,22.2c-2.3,0-4.6-0.7-6.4-2c2-3.7,8.7-2.8,12.2-3.1c2.1-0.2,9.3-2,10.8-0.8c1.9,1.5,0.7,2.9-2,3.7
		c-2.1,0.7-4.5-0.1-6.7,0.3C160.9,20.8,158.7,22.2,155.8,22.2z"/>
	<path class="st0" d="M150.1,20.1c2-3.1,8.7-2.1,11.8-2.4c2-0.2,11.9-1.6,10.2,0.6c-1.8,2.4-6.5,1.1-9,1.6
		C158.6,20.7,154.6,23.2,150.1,20.1z"/>
	<path class="st0" d="M201.5,153.7c-5.8,0-3.9-8.8,0.9-8.6C207.7,145.3,206.1,153.3,201.5,153.7z"/>
	<path class="st0" d="M205.2,148.7c0,3.9-5.5,6.5-6.8,2.1C197.2,146.3,205.2,143.2,205.2,148.7z"/>
	<path class="st0" d="M691.2,102.7c0.4-2.3,6.2-10.5,9-11.3c3.3-1,2.5,1.1,1.9,3C701.3,96.8,692.4,105.9,691.2,102.7z"/>
	<path class="st0" d="M702.4,92.7c-2.3,3.7-6,9.6-10.7,10.1C692.2,100,700.5,89.5,702.4,92.7z"/>
	<path class="st0" d="M515.6,145.7c-5.6,0-4.3-7,0.3-7.1C520.9,138.4,519.3,145.7,515.6,145.7z"/>
	<path class="st0" d="M518.6,140.9c0.1,4-6.2,6-6.4,1.7C512.2,140,518.1,137.2,518.6,140.9z"/>
	<path class="st0" d="M526.9,92.8c-5.4,0-4.2-3.6-0.5-5.5C532.9,84.1,531.5,92.8,526.9,92.8z"/>
	<path class="st0" d="M523.6,91.1c0.7-1.8,5.9-6.5,6.8-2.9C531.4,92.6,525.7,92.3,523.6,91.1z"/>
	<path class="st0" d="M53.8,33.4c2.3-3.3,5.7-3.7,9.3-3.1C63.4,34.5,56.2,36.5,53.8,33.4z"/>
	<path class="st0" d="M56,34.3c-0.4-0.3-0.9-0.7-1.3-1c1.3-1.4,5-4.2,7.1-2.6C64.8,33,57.3,34,56,34.3z"/>
	<path class="st0" d="M971.1,135.3c-0.8,0-1.9-0.7-2.7-1.1c1.8-2.8,3.7-3.4,6.7-4.2C975.7,132.4,973.7,135.3,971.1,135.3z"/>
	<path class="st0" d="M969.3,134c1.6-2.3,2.5-2.4,5.3-3.2C974.5,133.8,971.8,135,969.3,134z"/>
	<path class="st0" d="M49.8,36.9c-0.5,0-1.6-1-2.1-1.4c1-1.2,1.9-2.3,2.9-3.5c0.9,0.8,1.9,1.7,2.8,2.5
		C52.3,35.3,51.1,36.3,49.8,36.9z"/>
	<path class="st0" d="M50.7,32.8c0.6,0.5,1.2,1.1,1.8,1.6C49.4,36.8,47.7,36.4,50.7,32.8z"/>
	<path class="st0" d="M699.2,70.8c-1.9-3.2,1.4-5.9,3.6-2.2C701.7,69.5,700.3,71.5,699.2,70.8z"/>
	<path class="st0" d="M702,68.5c-0.8,0.7-1.5,1.3-2.3,2C698.3,68.1,699.8,66.2,702,68.5z"/>
</g>
</svg>
